<?xml version="1.0" encoding="utf-8"?><!DOCTYPE svg PUBLIC "-//W3C//DTD SVG 1.1//EN" "http://www.w3.org/Graphics/SVG/1.1/DTD/svg11.dtd"><svg xmlns="http://www.w3.org/2000/svg" xmlns:xlink="http://www.w3.org/1999/xlink" version="1.1" x="0px" y="0px" viewBox="0 0 100 100" enable-background="new 0 0 100 100" xml:space="preserve" aria-hidden="true" width="100px" height="100px" style="fill:url(#CerosGradient_idf9a54e2fd);"><defs><linearGradient class="cerosgradient" data-cerosgradient="true" id="CerosGradient_idf9a54e2fd" gradientUnits="userSpaceOnUse" x1="50%" y1="100%" x2="50%" y2="0%"><stop offset="0%" stop-color="#2C1A5D"/><stop offset="100%" stop-color="#2C1A5D"/></linearGradient><linearGradient/></defs><path d="M50.312,88.75c1.875,1.25,4.037,1.875,6.484,1.875s5-1.275,7.656-3.828l6.484-6.328c6.928-6.719,13.646-13.49,20.156-20.312  L100.781,50l-9.688-10.156c-6.51-6.823-13.229-13.594-20.156-20.312l-6.953-6.719c-2.344-2.292-4.609-3.438-6.797-3.438h-0.781  c-1.666,0-3.021,0.208-4.062,0.625s-2.083,1.042-3.125,1.875c-1.094,0.885-2.083,1.875-2.969,2.969  c-0.833,1.042-1.458,2.083-1.875,3.125s-0.625,2.344-0.625,3.906s0.208,2.865,0.625,3.906c0.469,1.094,1.198,2.24,2.188,3.438  c0.99,1.25,2.344,2.682,4.062,4.297l4.141,3.984H13.203c-2.552,0-4.557,0.417-6.016,1.25c-1.458,0.885-2.604,1.719-3.438,2.5  c-0.781,0.833-1.615,1.979-2.5,3.438C0.417,46.146,0,47.917,0,50c0,2.084,0.417,3.854,1.25,5.312c0.885,1.459,1.719,2.604,2.5,3.438  c0.833,0.781,1.979,1.615,3.438,2.5c1.458,0.834,3.463,1.25,6.016,1.25h40.938l-6.719,7.422c-2.448,2.709-3.672,5.287-3.672,7.734  c0,2.396,0.625,4.531,1.875,6.406C46.927,85.885,48.49,87.447,50.312,88.75" style="fill:url(#CerosGradient_idf9a54e2fd);"/></svg>