<svg xmlns="http://www.w3.org/2000/svg" xmlns:xlink="http://www.w3.org/1999/xlink" xml:space="preserve" version="1.1" style="shape-rendering:geometricPrecision;text-rendering:geometricPrecision;image-rendering:optimizeQuality;" viewBox="0 0 847 847" x="0px" y="0px" fill-rule="evenodd" clip-rule="evenodd" aria-hidden="true" width="847px" height="847px"><defs><linearGradient class="cerosgradient" data-cerosgradient="true" id="CerosGradient_id132920d9c" gradientUnits="userSpaceOnUse" x1="50%" y1="100%" x2="50%" y2="0%"><stop offset="0%" stop-color="#d1d1d1"/><stop offset="100%" stop-color="#d1d1d1"/></linearGradient><linearGradient/><style type="text/css">
   
    .fil0-id96d6b3b75{fill:black}
   
  </style></defs><g><path class="fil0-id96d6b3b75" d="M423 22c222,0 402,180 402,401 0,222 -180,402 -402,402 -221,0 -401,-180 -401,-402 0,-221 180,-401 401,-401zm0 354l165 -165 47 47 -165 165 165 165 -47 47 -165 -165 -165 165 -47 -47 165 -165 -165 -165 47 -47 165 165z"/></g></svg>