<svg xmlns="http://www.w3.org/2000/svg" xmlns:xlink="http://www.w3.org/1999/xlink" version="1.1" x="0px" y="0px" viewBox="0 0 100 100" style="enable-background:new 0 0 100 100;fill:url(#CerosGradient_idb95adce21);" xml:space="preserve" aria-hidden="true" width="100px" height="100px"><defs><linearGradient class="cerosgradient" data-cerosgradient="true" id="CerosGradient_idb95adce21" gradientUnits="userSpaceOnUse" x1="50%" y1="100%" x2="50%" y2="0%"><stop offset="0%" stop-color="#D1D1D1"/><stop offset="100%" stop-color="#D1D1D1"/></linearGradient><linearGradient/></defs><path d="M85,53.3l-0.2-3.1l-4,0.2V22.6h-3.1v20.2L41.2,32.2l-3.7-7.4l-17.7-5.1l4.6,9.2l-8.9,5.3l17.7,5.1l7.1-4.2L77.7,46v4.7  l-30,1.8l0,0l-2.8,0.2l-6-5.7l-18.4,1.1l5.9,5.6l-10.9-0.3l6.8,7.8L15,68.5l18.4,0.6l5.8-5.9l38.5,1.2v17.1h3.1V53.6L85,53.3z   M35.4,27.5l1.8,3.6l-9.6-2.8l-1.8-3.6L35.4,27.5z M32.8,36.1l-9.6-2.8l3.5-2.1l9.6,2.8L32.8,36.1z M40.8,56l-2.6,3.1l-10,0.6  l2.6-3.1l6-0.4L40.8,56z M37.7,50.1l2.9,2.8l-3.9,0.2l-6,0.4l-2.9-2.8L37.7,50.1z M26.7,56.8l-2,2.5l-2.3-2.6L26.7,56.8z M32.1,66  l-10-0.3l2.6-2.6l2.9-0.2l7.4,0.2L32.1,66z M77.7,61.3l-36.3-1.1l3.6-4.4l2.8-0.2l0,0l29.8-1.8V61.3z" style="fill:url(#CerosGradient_idb95adce21);"/></svg>