<svg xmlns:x="http://ns.adobe.com/Extensibility/1.0/" xmlns:i="http://ns.adobe.com/AdobeIllustrator/10.0/" xmlns:graph="http://ns.adobe.com/Graphs/1.0/" xmlns="http://www.w3.org/2000/svg" xmlns:xlink="http://www.w3.org/1999/xlink" version="1.1" x="0px" y="0px" viewBox="0 0 100 100" enable-background="new 0 0 100 100" xml:space="preserve" aria-hidden="true" width="100px" height="100px" style="fill:url(#CerosGradient_idc440115a2);"><defs><linearGradient class="cerosgradient" data-cerosgradient="true" id="CerosGradient_idc440115a2" gradientUnits="userSpaceOnUse" x1="50%" y1="100%" x2="50%" y2="0%"><stop offset="0%" stop-color="#FDB825"/><stop offset="100%" stop-color="#FDB825"/></linearGradient><linearGradient/></defs><metadata><sfw xmlns="http://ns.adobe.com/SaveForWeb/1.0/"><slices/><sliceSourceBounds width="1549.7" height="1444.2" x="-103.4" y="-1447" bottomLeftOrigin="true"/></sfw></metadata><path d="M53.1,7.7c-0.4,10.6,0.6,21.3-1.1,31.7c0.2,5.8,0.5,11.7,0.6,17.5c0,3-0.2,6-0.4,9c3.1-2.9,6.2-5.6,9.4-8.4  c2.4-2.1,5-3.8,7.9-4.5c0.9-0.2,1.7-0.1,1.9,0.7c0.1,0.4,0,1.2-0.3,1.5c-6.6,6.1-12.3,13.1-19.6,18.2l-0.6,0.4  c-0.8,0.5-1.8,0.3-2.3-0.4l0,0c-0.1-0.2-0.2-0.3-0.3-0.5c-3.7-3.4-7.5-6.8-11.1-10.3c-2.2-2.2-4.3-4.6-6.3-7  c-1.1-1.3-1.3-2.8-0.5-3.8c0.9-1.1,2.4-0.6,3.7,0.5c4.6,3.8,8.8,8,12.9,12.5c0.1,0.1,0.2,0.3,0.3,0.4c-0.4-6-0.3-12-0.1-18.1  c0-1.1,0.1-2.2,0.2-3.3c-0.5-8.8,0.2-17.6,0.6-26.4c0.2-3.6,0.9-7.2,2.4-10.2c0.5-0.9,1.1-1.5,1.8-1C52.5,6.5,53.1,7.2,53.1,7.7z   M49.2,92.8c11.6,1.7,23.4,0.7,35.1,1.1c0.5,0,1.3-0.5,1.6-0.9c0.5-0.7-0.2-1.4-1.1-1.8c-3.3-1.6-7.2-2.2-11.3-2.4  c-9.7-0.4-19.4-1.1-29.2-0.6c-1.2-0.1-2.4-0.1-3.6-0.2c-7.7-0.3-15.3-0.3-23,0.3c-2.2,0.2-4,0.9-3.8,2.2c0.1,1.3,1.7,2.2,3.9,2.3  c4,0.3,8,0.5,12,0.5C36.3,93.3,42.8,93,49.2,92.8z" style="fill:url(#CerosGradient_idc440115a2);"/></svg>